<svg xmlns="http://www.w3.org/2000/svg" width="359" height="359" fill="#ccc" viewBox="0 0 95 95"><!--! Licenced from Surang from www.flaticon.com --><path d="M45.524 21.402c.061-.056 5.287-4.536 11.614-9.956l11.504-9.855.997 2.085c2.443 5.107 2.35 9.627-.312 15.116l-1.315 2.712h-11.3c-6.215 0-11.25-.046-11.189-.101zm-18.271-2.61c-3.028-5.49-3.134-10.009-.354-15.117l1.135-2.087 9.699 7.317 9.678 7.511c-.012.107-1.494 1.295-3.294 2.641l-3.273 2.447h-6.048-6.048zm2.966 9.062l-.532-2.117h18.46 18.46l-.532 2.117-.532 2.117H48.148 30.751zm8.933 13.374l-8.07-1.914.013-.968.066-2.555.053-1.588h16.894 16.894l.159 2.447c.087 1.346.075 2.522-.027 2.613-.308.276-16.426 3.938-17.197 3.907-.394-.016-4.347-.89-8.786-1.943zm27.12 6.337l-5.015-1.209-3.692-.86 4.221-1.005c4.692-1.117 4.883-1.146 4.883-.745 0 .155.409 1.167.909 2.249 1.018 2.203 1.032 2.187-1.306 1.57zm-37.554-1.57l.909-2.249c0-.155.089-.283.198-.285.362-.006 8.776 1.965 8.703 2.038-.097.097-10.156 2.463-10.471 2.463-.136 0 .161-.885.661-1.967zm14.138 8.972a33.94 33.94 0 0 1-4.63-1.158l-6.16-2.392c.104-.009 3.772-.85 8.151-1.869l7.961-1.854 7.658 1.776 7.658 1.932c0 .086-2.086.838-4.635 1.672-6.795 2.223-10.839 2.701-16.002 1.892zm3.348 14.382c-1.276-.391-1.963-.938-3.873-3.081-1.975-2.216-5.461-5.072-7.859-6.44a39.84 39.84 0 0 0-8.086-3.345c-.982-.271-1.786-.601-1.786-.732 0-.613.647-1.997.934-1.997.176 0 2.863.823 5.971 1.828 8.46 2.738 11.883 3.347 17.437 3.105 4.182-.182 5.891-.534 14.469-2.981l7.458-2.127.413.888c.64 1.376.57 1.479-1.373 2.016-6.127 1.693-11.921 5.254-15.96 9.809-.844.952-1.903 1.998-2.354 2.323-1.427 1.032-3.497 1.314-5.391.733zM29.233 93.006c-.062-.151-1.368-5.51-2.902-11.91-3.116-12.997-3.389-14.895-2.796-19.453.252-1.935.426-2.568.707-2.568.641 0 3.537.873 5.225 1.575 4.004 1.666 7.6 4.19 10.291 7.224 1.88 2.12 4.871 5.15 5.268 7.135l1.533 7.666h0V93.28h-8.607c-6.65 0-8.633-.062-8.72-.274zm37.829 0c.062-.151 1.368-5.51 2.902-11.91C73.08 68.098 73.353 66.2 72.76 61.643c-.252-1.935-.426-2.568-.707-2.568-.641 0-3.537.873-5.225 1.575-4.004 1.666-7.6 4.19-10.291 7.224-1.88 2.12-4.871 5.15-5.268 7.135l-1.533 7.666h0V93.28h8.607c6.65 0 8.633-.062 8.72-.274z"/></svg>
